PathFileType	4	(x/y/z)	TRC_MarkerData\Passive\Passive_Pref0006.trc
DataRate	CameraRate	NumFrames	NumMarkers	Units	OrigDataRate	OrigDataStartFrame	OrigNumFrames
240	240	4	49	mm	240	79	313
Frame#	Time	R_AC			L_AC			HEAD			STERN			C7			R_IC			L_ASIS			R_ASIS			L_GT			R_GT			L_PSIS			R_PSIS			SACRAL			L_LAT_KNEE			L_MED_KNEE			R_LAT_KNEE			R_MED_KNEE			L_LAT_ANK			L_MED_ANK			R_LAT_ANK			R_MED_ANK			L_THIGH_PROX_POST			L_THIGH_PROX_ANT			L_THIGH_DIST_ANT			L_THIGH_DIST_POST			R_THIGH_PROX_POST			R_THIGH_PROX_ANT			R_THIGH_DIST_ANT			R_THIGH_DIST_POST			L_SHANK_PROX_POST			L_SHANK_PROX_ANT			L_SHANK_DIST_ANT			L_SHANK_DIST_POST			R_SHANK_PROX_POST			R_SHANK_PROX_ANT			R_SHANK_DIST_ANT			R_SHANK_DIST_POST			L_HEEL_LAT			L_HEEL_SUP			L_HEEL_MED			R_HEEL_LAT			R_HEEL_SUP			R_HEEL_MED			L_1ST_MET			L_5TH_MET			L_TOE			R_1ST_MET			R_5TH_MET			R_TOE			
		X1	Y1	Z1	X2	Y2	Z2	X3	Y3	Z3	X4	Y4	Z4	X5	Y5	Z5	X6	Y6	Z6	X7	Y7	Z7	X8	Y8	Z8	X9	Y9	Z9	X10	Y10	Z10	X11	Y11	Z11	X12	Y12	Z12	X13	Y13	Z13	X14	Y14	Z14	X15	Y15	Z15	X16	Y16	Z16	X17	Y17	Z17	X18	Y18	Z18	X19	Y19	Z19	X20	Y20	Z20	X21	Y21	Z21	X22	Y22	Z22	X23	Y23	Z23	X24	Y24	Z24	X25	Y25	Z25	X26	Y26	Z26	X27	Y27	Z27	X28	Y28	Z28	X29	Y29	Z29	X30	Y30	Z30	X31	Y31	Z31	X32	Y32	Z32	X33	Y33	Z33	X34	Y34	Z34	X35	Y35	Z35	X36	Y36	Z36	X37	Y37	Z37	X38	Y38	Z38	X39	Y39	Z39	X40	Y40	Z40	X41	Y41	Z41	X42	Y42	Z42	X43	Y43	Z43	X44	Y44	Z44	X45	Y45	Z45	X46	Y46	Z46	X47	Y47	Z47	X48	Y48	Z48	X49	Y49	Z49	

79	0.32604	-477.48	1530.1	454.91	-480.23	1543.2	44.771	-462.28	1863	260.1	-406.92	1505.2	255.97	-544.32	1580.4	246.97	NaN	NaN	NaN	-429.25	1048.8	140.24	-444.22	1055.6	406.42	-520.44	966.17	85.288	-522.38	971.63	450.23	-660.69	1060.9	203.12	-642.37	1051.6	313.13	-648.51	1019.5	256.89	-465.96	569.29	133.24	-464.46	588.97	271.15	-391.99	568.97	447.63	-375.5	561.83	311.88	-515.96	115.13	176.85	-522.11	116.16	264.37	-699.47	223.59	404.94	-642.24	226.71	314.26	-520.2	783.05	105.22	-458.8	779.98	103.61	-448.65	712.19	118.65	-513.18	710.33	117.44	-475.99	787.52	457.04	-411.86	811.85	459.77	-390.25	738.66	459.28	-456.52	716.19	452.7	-492.71	471.05	157.08	-429.4	471.76	163.4	-429.98	422.27	173.58	-487.64	422.68	157.48	-515.83	444.9	455.55	-460.37	408.26	442.31	-507.88	351.9	429.57	-564.2	388.68	441.25	-568.38	37.722	182.92	-585.77	65.096	213.63	-577.94	41.252	249.23	-780.02	228.65	371.69	-760.63	254.2	340.32	-757.21	221.92	310.11	-356.23	53.039	290.86	-370.46	47.355	180.67	-308.12	69.658	261.28	-592.5	94.874	333.33	-626.35	94.185	437.86	-556.29	72.115	377.09
80	0.33022	-472.82	1530.4	454.88	-475.03	1543.6	44.758	-457.14	1863.3	260.14	-402.01	1505.5	256	-539.34	1580.7	246.88	NaN	NaN	NaN	-424.55	1049	139.96	-439.46	1056.2	406.09	-515.99	966.4	85.038	-517.27	972.25	450.08	-655.9	1061.2	202.83	-637.63	1051.8	312.89	-643.67	1019.8	256.65	-463.63	569.32	133.12	-461.98	589.04	271.02	-383.23	570.51	447.47	-367.37	563.55	311.72	-515.68	115.27	176.87	-521.96	116.31	264.31	-685.29	219.6	405.24	-628.31	224.09	314.42	-516.62	783.51	105.02	-455.36	780.14	103.52	-445.47	712.15	118.46	-509.95	710.59	117.31	-469.26	788.56	457.2	-405.35	813.48	459.53	-382.98	740.43	459.04	-449.09	717.36	452.89	-490.8	471.21	156.99	-427.49	471.63	163.32	-428.28	422.16	173.51	-485.94	422.82	157.41	-505.35	444.16	455.78	-449.32	408.52	442.18	-495.91	351.39	429.47	-552.78	387.17	441.55	-568.28	37.942	182.92	-585.61	65.327	213.61	-577.88	41.469	249.19	-766.04	222.76	372.29	-747.45	248.87	340.82	-743.28	216.61	310.59	-356.09	52.805	290.9	-370.33	47.203	180.69	-307.93	69.291	261.3	-575.4	93.547	333.4	-609	91.981	437.98	-538.56	71.656	377.06
81	0.3344	-468.13	1530.7	454.85	-469.85	1544.1	44.744	-452	1863.6	260.18	-397.11	1505.8	256.02	-534.36	1581.1	246.79	NaN	NaN	NaN	-419.87	1049.1	139.69	-434.7	1056.7	405.78	-511.55	966.61	84.794	-512.17	972.84	449.95	-651.09	1061.5	202.57	-632.89	1052.1	312.68	-638.83	1020	256.42	-461.3	569.35	133.02	-459.51	589.1	270.91	-374.59	572.03	447.31	-359.35	565.23	311.57	-515.41	115.41	176.9	-521.81	116.46	264.25	-671	215.56	405.51	-614.27	221.42	314.58	-513.05	783.96	104.82	-451.92	780.3	103.46	-442.31	712.09	118.31	-506.73	710.85	117.19	-462.6	789.59	457.38	-398.89	815.07	459.28	-375.78	742.17	458.8	-441.73	718.52	453.08	-488.89	471.36	156.91	-425.58	471.51	163.25	-426.58	422.06	173.45	-484.23	422.96	157.36	-494.92	443.38	456	-438.33	408.76	442.05	-483.96	350.86	429.38	-541.39	385.61	441.83	-568.19	38.168	182.91	-585.44	65.564	213.6	-577.81	41.683	249.16	-751.91	216.81	372.83	-734.09	243.45	341.28	-729.18	211.25	311.03	-355.96	52.58	290.93	-370.21	47.057	180.71	-307.75	68.931	261.32	-558.23	92.224	333.5	-591.61	89.8	438.12	-520.81	71.214	377.07
82	0.33858	-463.43	1530.9	454.82	-464.68	1544.4	44.729	-446.87	1863.9	260.23	-392.2	1506	256.04	-529.38	1581.4	246.71	NaN	NaN	NaN	-415.2	1049.2	139.42	-429.93	1057.2	405.47	-507.13	966.79	84.56	-507.07	973.42	449.82	-646.26	1061.8	202.32	-628.16	1052.3	312.49	-633.99	1020.2	256.21	-458.98	569.38	132.93	-457.06	589.15	270.81	-366.07	573.52	447.15	-351.44	566.85	311.43	-515.13	115.56	176.93	-521.67	116.63	264.2	-656.61	211.47	405.76	-600.11	218.68	314.74	-509.48	784.38	104.65	-448.48	780.47	103.43	-439.15	712.01	118.18	-503.52	711.1	117.09	-456	790.61	457.58	-392.48	816.62	459.04	-368.66	743.86	458.55	-434.46	719.65	453.28	-486.99	471.51	156.85	-423.68	471.39	163.19	-424.88	421.96	173.4	-482.53	423.11	157.31	-484.55	442.57	456.2	-427.4	409	441.93	-472.03	350.33	429.29	-530.01	384.02	442.08	-568.09	38.401	182.9	-585.28	65.809	213.58	-577.72	41.894	249.13	-737.62	210.83	373.33	-720.55	237.98	341.69	-714.9	205.83	311.44	-355.83	52.362	290.95	-370.09	46.917	180.74	-307.57	68.579	261.35	-541.01	90.911	333.6	-574.18	87.65	438.28	-503.04	70.792	377.12
